<?xml version="1.0" encoding="UTF-8" standalone="no"?>
<svg
   xmlns:dc="http://purl.org/dc/elements/1.1/"
   xmlns:cc="http://creativecommons.org/ns#"
   xmlns:rdf="http://www.w3.org/1999/02/22-rdf-syntax-ns#"
   xmlns:svg="http://www.w3.org/2000/svg"
   xmlns="http://www.w3.org/2000/svg"
   xmlns:sodipodi="http://sodipodi.sourceforge.net/DTD/sodipodi-0.dtd"
   xmlns:inkscape="http://www.inkscape.org/namespaces/inkscape"
   version="1.0"
   x="0px"
   y="0px"
   viewBox="0 0 100 75.422"
   enable-background="new 0 0 100 75.422"
   xml:space="preserve"
   id="svg5382"
   inkscape:version="0.91 r13725"
   sodipodi:docname="icon-mail.svg"><metadata
     id="metadata5390"><rdf:RDF><cc:Work
         rdf:about=""><dc:format>image/svg+xml</dc:format><dc:type
           rdf:resource="http://purl.org/dc/dcmitype/StillImage" /></cc:Work></rdf:RDF></metadata><defs
     id="defs5388" /><sodipodi:namedview
     pagecolor="#ffffff"
     bordercolor="#666666"
     borderopacity="1"
     objecttolerance="10"
     gridtolerance="10"
     guidetolerance="10"
     inkscape:pageopacity="0"
     inkscape:pageshadow="2"
     inkscape:window-width="2560"
     inkscape:window-height="1422"
     id="namedview5386"
     showgrid="false"
     inkscape:zoom="3.1290606"
     inkscape:cx="-12.7984"
     inkscape:cy="37.710999"
     inkscape:window-x="0"
     inkscape:window-y="18"
     inkscape:window-maximized="0"
     inkscape:current-layer="svg5382" /><path
     d="m 98.4,74.215248 -96.8,0 0,-73.008496 96.8,0 0,73.008496 0,0 z m -85.345656,-6.753736 73.890344,0 -24.314224,-24.89212 -4.603808,4.633816 c -1.993112,1.992144 -4.846776,3.132448 -7.84564,3.132448 -0.01646,0 -0.03388,-0.0029 -0.05034,-0.0029 -3.01048,-0.01258 -5.872856,-1.177088 -7.85532,-3.198272 l -4.68028,-4.73836 -24.540736,25.065392 0,0 z m -4.700608,-54.664896 0,49.814248 24.49524,-25.016992 -24.49524,-24.797256 0,0 z m 59.035416,24.981176 24.257112,24.830168 0,-49.25184 -24.257112,24.421672 0,0 z M 13.069832,7.962424 47.088256,42.397088 c 0.736648,0.749232 1.854688,1.179024 3.072432,1.181928 0.0077,0 0.01355,0 0.02033,0 1.20032,0 2.343528,-0.423984 3.059848,-1.144176 l 34.242032,-34.472416 -74.413064,0 0,0 z"
     id="path5384"
     inkscape:connector-curvature="0" /></svg>